<?xml version="1.0" encoding="UTF-8" standalone="no"?>
<!DOCTYPE svg PUBLIC "-//W3C//DTD SVG 1.1//EN"
 "http://www.w3.org/Graphics/SVG/1.1/DTD/svg11.dtd">
<!-- Generated by graphviz version 2.47.0 (20210316.0004)
 -->
<!-- Title: dependencies Pages: 1 -->
<svg width="1635pt" height="284pt"
 viewBox="0.00 0.00 1635.00 284.00" xmlns="http://www.w3.org/2000/svg" xmlns:xlink="http://www.w3.org/1999/xlink">
<g id="graph0" class="graph" transform="scale(1 1) rotate(0) translate(4 280)">
<title>dependencies</title>
<polygon fill="white" stroke="transparent" points="-4,4 -4,-280 1631,-280 1631,4 -4,4"/>
<text text-anchor="start" x="792.51" y="-42.4" font-family="Times-12" font-weight="bold" font-size="14.00">Legend</text>
<polygon fill="#ffffb3" stroke="transparent" points="579.5,-10 579.5,-30 599.5,-30 599.5,-10 579.5,-10"/>
<text text-anchor="start" x="603.13" y="-15.4" font-family="Times-12" font-size="14.00"> &#160;Declarations</text>
<polygon fill="#8dd3c7" stroke="transparent" points="692.5,-10 692.5,-30 712.5,-30 712.5,-10 692.5,-10"/>
<text text-anchor="start" x="716.23" y="-15.4" font-family="Times-12" font-size="14.00"> &#160;Module</text>
<polygon fill="#80b1d3" stroke="transparent" points="778.5,-10 778.5,-30 798.5,-30 798.5,-10 778.5,-10"/>
<text text-anchor="start" x="802.28" y="-15.4" font-family="Times-12" font-size="14.00"> &#160;Bootstrap</text>
<polygon fill="#fdb462" stroke="transparent" points="875.5,-10 875.5,-30 895.5,-30 895.5,-10 875.5,-10"/>
<text text-anchor="start" x="899.17" y="-15.4" font-family="Times-12" font-size="14.00"> &#160;Providers</text>
<polygon fill="#fb8072" stroke="transparent" points="971.5,-10 971.5,-30 991.5,-30 991.5,-10 971.5,-10"/>
<text text-anchor="start" x="995.23" y="-15.4" font-family="Times-12" font-size="14.00"> &#160;Exports</text>
<g id="clust1" class="cluster">
<title>cluster_AppModule</title>
<polygon fill="none" stroke="black" stroke-dasharray="1,5" points="8,-70 8,-268 1619,-268 1619,-70 8,-70"/>
</g>
<g id="clust14" class="cluster">
<title>cluster_AppModule_bootstrap</title>
<polygon fill="none" stroke="black" points="775,-208 775,-260 899,-260 899,-208 775,-208"/>
</g>
<g id="clust12" class="cluster">
<title>cluster_AppModule_imports</title>
<polygon fill="none" stroke="black" points="1467,-78 1467,-130 1611,-130 1611,-78 1467,-78"/>
</g>
<g id="clust2" class="cluster">
<title>cluster_AppModule_declarations</title>
<polygon fill="none" stroke="black" points="16,-78 16,-130 1459,-130 1459,-78 16,-78"/>
</g>
<!-- AddTrainingComponent -->
<g id="node1" class="node">
<title>AddTrainingComponent</title>
<polygon fill="#ffffb3" stroke="black" points="1450.65,-122 1297.35,-122 1297.35,-86 1450.65,-86 1450.65,-122"/>
<text text-anchor="middle" x="1374" y="-99.8" font-family="Times,serif" font-size="14.00">AddTrainingComponent</text>
</g>
<!-- AppModule -->
<g id="node10" class="node">
<title>AppModule</title>
<polygon fill="#8dd3c7" stroke="black" points="878.66,-187 875.66,-191 854.66,-191 851.66,-187 795.34,-187 795.34,-151 878.66,-151 878.66,-187"/>
<text text-anchor="middle" x="837" y="-164.8" font-family="Times,serif" font-size="14.00">AppModule</text>
</g>
<!-- AddTrainingComponent&#45;&gt;AppModule -->
<g id="edge1" class="edge">
<title>AddTrainingComponent&#45;&gt;AppModule</title>
<path fill="none" stroke="black" d="M1374,-122.13C1374,-142.57 1374,-173 1374,-173 1374,-173 888.69,-173 888.69,-173"/>
<polygon fill="black" stroke="black" points="888.69,-169.5 878.69,-173 888.69,-176.5 888.69,-169.5"/>
</g>
<!-- AppComponent -->
<g id="node2" class="node">
<title>AppComponent</title>
<polygon fill="#ffffb3" stroke="black" points="1278.94,-122 1173.06,-122 1173.06,-86 1278.94,-86 1278.94,-122"/>
<text text-anchor="middle" x="1226" y="-99.8" font-family="Times,serif" font-size="14.00">AppComponent</text>
</g>
<!-- AppComponent&#45;&gt;AppModule -->
<g id="edge2" class="edge">
<title>AppComponent&#45;&gt;AppModule</title>
<path fill="none" stroke="black" d="M1226,-122.27C1226,-140.56 1226,-166 1226,-166 1226,-166 889,-166 889,-166"/>
<polygon fill="black" stroke="black" points="889,-162.5 879,-166 889,-169.5 889,-162.5"/>
</g>
<!-- DashboardCardComponent -->
<g id="node3" class="node">
<title>DashboardCardComponent</title>
<polygon fill="#ffffb3" stroke="black" points="1155.69,-122 986.31,-122 986.31,-86 1155.69,-86 1155.69,-122"/>
<text text-anchor="middle" x="1071" y="-99.8" font-family="Times,serif" font-size="14.00">DashboardCardComponent</text>
</g>
<!-- DashboardCardComponent&#45;&gt;AppModule -->
<g id="edge3" class="edge">
<title>DashboardCardComponent&#45;&gt;AppModule</title>
<path fill="none" stroke="black" d="M1071,-122.01C1071,-138.05 1071,-159 1071,-159 1071,-159 888.83,-159 888.83,-159"/>
<polygon fill="black" stroke="black" points="888.83,-155.5 878.83,-159 888.83,-162.5 888.83,-155.5"/>
</g>
<!-- HeaderComponent -->
<g id="node4" class="node">
<title>HeaderComponent</title>
<polygon fill="#ffffb3" stroke="black" points="968.74,-122 847.26,-122 847.26,-86 968.74,-86 968.74,-122"/>
<text text-anchor="middle" x="908" y="-99.8" font-family="Times,serif" font-size="14.00">HeaderComponent</text>
</g>
<!-- HeaderComponent&#45;&gt;AppModule -->
<g id="edge4" class="edge">
<title>HeaderComponent&#45;&gt;AppModule</title>
<path fill="none" stroke="black" d="M862.98,-122.11C862.98,-122.11 862.98,-140.99 862.98,-140.99"/>
<polygon fill="black" stroke="black" points="859.48,-140.99 862.98,-150.99 866.48,-140.99 859.48,-140.99"/>
</g>
<!-- SidenavComponent -->
<g id="node5" class="node">
<title>SidenavComponent</title>
<polygon fill="#ffffb3" stroke="black" points="829.44,-122 702.56,-122 702.56,-86 829.44,-86 829.44,-122"/>
<text text-anchor="middle" x="766" y="-99.8" font-family="Times,serif" font-size="14.00">SidenavComponent</text>
</g>
<!-- SidenavComponent&#45;&gt;AppModule -->
<g id="edge5" class="edge">
<title>SidenavComponent&#45;&gt;AppModule</title>
<path fill="none" stroke="black" d="M812.19,-122.11C812.19,-122.11 812.19,-140.99 812.19,-140.99"/>
<polygon fill="black" stroke="black" points="808.69,-140.99 812.19,-150.99 815.69,-140.99 808.69,-140.99"/>
</g>
<!-- TrainingCardComponent -->
<g id="node6" class="node">
<title>TrainingCardComponent</title>
<polygon fill="#ffffb3" stroke="black" points="684.25,-122 527.75,-122 527.75,-86 684.25,-86 684.25,-122"/>
<text text-anchor="middle" x="606" y="-99.8" font-family="Times,serif" font-size="14.00">TrainingCardComponent</text>
</g>
<!-- TrainingCardComponent&#45;&gt;AppModule -->
<g id="edge6" class="edge">
<title>TrainingCardComponent&#45;&gt;AppModule</title>
<path fill="none" stroke="black" d="M606,-122.01C606,-138.05 606,-159 606,-159 606,-159 785.17,-159 785.17,-159"/>
<polygon fill="black" stroke="black" points="785.17,-162.5 795.17,-159 785.17,-155.5 785.17,-162.5"/>
</g>
<!-- TrainingComponent -->
<g id="node7" class="node">
<title>TrainingComponent</title>
<polygon fill="#ffffb3" stroke="black" points="509.54,-122 380.46,-122 380.46,-86 509.54,-86 509.54,-122"/>
<text text-anchor="middle" x="445" y="-99.8" font-family="Times,serif" font-size="14.00">TrainingComponent</text>
</g>
<!-- TrainingComponent&#45;&gt;AppModule -->
<g id="edge7" class="edge">
<title>TrainingComponent&#45;&gt;AppModule</title>
<path fill="none" stroke="black" d="M445,-122.27C445,-140.56 445,-166 445,-166 445,-166 785.05,-166 785.05,-166"/>
<polygon fill="black" stroke="black" points="785.05,-169.5 795.05,-166 785.05,-162.5 785.05,-169.5"/>
</g>
<!-- TrainingDetailsComponent -->
<g id="node8" class="node">
<title>TrainingDetailsComponent</title>
<polygon fill="#ffffb3" stroke="black" points="362.69,-122 193.31,-122 193.31,-86 362.69,-86 362.69,-122"/>
<text text-anchor="middle" x="278" y="-99.8" font-family="Times,serif" font-size="14.00">TrainingDetailsComponent</text>
</g>
<!-- TrainingDetailsComponent&#45;&gt;AppModule -->
<g id="edge8" class="edge">
<title>TrainingDetailsComponent&#45;&gt;AppModule</title>
<path fill="none" stroke="black" d="M278,-122.13C278,-142.57 278,-173 278,-173 278,-173 784.98,-173 784.98,-173"/>
<polygon fill="black" stroke="black" points="784.98,-176.5 794.98,-173 784.98,-169.5 784.98,-176.5"/>
</g>
<!-- TrainingListComponent -->
<g id="node9" class="node">
<title>TrainingListComponent</title>
<polygon fill="#ffffb3" stroke="black" points="175.82,-122 24.18,-122 24.18,-86 175.82,-86 175.82,-122"/>
<text text-anchor="middle" x="100" y="-99.8" font-family="Times,serif" font-size="14.00">TrainingListComponent</text>
</g>
<!-- TrainingListComponent&#45;&gt;AppModule -->
<g id="edge9" class="edge">
<title>TrainingListComponent&#45;&gt;AppModule</title>
<path fill="none" stroke="black" d="M100,-122.01C100,-144.49 100,-180 100,-180 100,-180 785.26,-180 785.26,-180"/>
<polygon fill="black" stroke="black" points="785.26,-183.5 795.26,-180 785.26,-176.5 785.26,-183.5"/>
</g>
<!-- AppComponent  -->
<g id="node12" class="node">
<title>AppComponent </title>
<polygon fill="#80b1d3" stroke="black" points="891.44,-252 782.56,-252 782.56,-216 891.44,-216 891.44,-252"/>
<text text-anchor="middle" x="837" y="-229.8" font-family="Times,serif" font-size="14.00">AppComponent </text>
</g>
<!-- AppModule&#45;&gt;AppComponent  -->
<g id="edge11" class="edge">
<title>AppModule&#45;&gt;AppComponent </title>
<path fill="none" stroke="black" stroke-dasharray="1,5" d="M837,-187.11C837,-187.11 837,-205.99 837,-205.99"/>
<polygon fill="black" stroke="black" points="833.5,-205.99 837,-215.99 840.5,-205.99 833.5,-205.99"/>
</g>
<!-- AppRoutingModule -->
<g id="node11" class="node">
<title>AppRoutingModule</title>
<polygon fill="#8dd3c7" stroke="black" points="1603.27,-122 1600.27,-126 1579.27,-126 1576.27,-122 1474.73,-122 1474.73,-86 1603.27,-86 1603.27,-122"/>
<text text-anchor="middle" x="1539" y="-99.8" font-family="Times,serif" font-size="14.00">AppRoutingModule</text>
</g>
<!-- AppRoutingModule&#45;&gt;AppModule -->
<g id="edge10" class="edge">
<title>AppRoutingModule&#45;&gt;AppModule</title>
<path fill="none" stroke="black" d="M1539,-122.01C1539,-144.49 1539,-180 1539,-180 1539,-180 888.81,-180 888.81,-180"/>
<polygon fill="black" stroke="black" points="888.81,-176.5 878.81,-180 888.81,-183.5 888.81,-176.5"/>
</g>
</g>
</svg>
