<svg width="13" height="14" viewBox="0 0 13 14" fill="none" xmlns="http://www.w3.org/2000/svg">
<path d="M6.3 1.4C5.55739 1.4 4.8452 1.695 4.3201 2.2201C3.795 2.7452 3.5 3.45739 3.5 4.2C3.5 4.94261 3.795 5.6548 4.3201 6.1799C4.8452 6.705 5.55739 7 6.3 7C7.04261 7 7.7548 6.705 8.2799 6.1799C8.805 5.6548 9.1 4.94261 9.1 4.2C9.1 3.45739 8.805 2.7452 8.2799 2.2201C7.7548 1.695 7.04261 1.4 6.3 1.4ZM2.1 4.2C2.1 3.08609 2.5425 2.0178 3.33015 1.23015C4.1178 0.442499 5.18609 0 6.3 0C7.41391 0 8.4822 0.442499 9.26985 1.23015C10.0575 2.0178 10.5 3.08609 10.5 4.2C10.5 5.31391 10.0575 6.3822 9.26985 7.16985C8.4822 7.9575 7.41391 8.4 6.3 8.4C5.18609 8.4 4.1178 7.9575 3.33015 7.16985C2.5425 6.3822 2.1 5.31391 2.1 4.2ZM3.5 11.2C2.94305 11.2 2.4089 11.4212 2.01508 11.8151C1.62125 12.2089 1.4 12.743 1.4 13.3C1.4 13.4857 1.32625 13.6637 1.19497 13.795C1.0637 13.9263 0.885652 14 0.7 14C0.514348 14 0.336301 13.9263 0.205025 13.795C0.0737498 13.6637 0 13.4857 0 13.3C0 12.3717 0.368749 11.4815 1.02513 10.8251C1.6815 10.1687 2.57174 9.8 3.5 9.8H9.1C10.0283 9.8 10.9185 10.1687 11.5749 10.8251C12.2313 11.4815 12.6 12.3717 12.6 13.3C12.6 13.4857 12.5263 13.6637 12.395 13.795C12.2637 13.9263 12.0857 14 11.9 14C11.7143 14 11.5363 13.9263 11.405 13.795C11.2737 13.6637 11.2 13.4857 11.2 13.3C11.2 12.743 10.9788 12.2089 10.5849 11.8151C10.1911 11.4212 9.65695 11.2 9.1 11.2H3.5Z" fill="#00A711"/>
</svg>
