<?xml version="1.0" encoding="UTF-8" standalone="no"?>
<!DOCTYPE svg PUBLIC "-//W3C//DTD SVG 1.1//EN"
 "http://www.w3.org/Graphics/SVG/1.1/DTD/svg11.dtd">
<!-- Generated by graphviz version 2.47.0 (20210316.0004)
 -->
<!-- Title: dependencies Pages: 1 -->
<svg width="1635pt" height="284pt"
 viewBox="0.00 0.00 1635.00 284.00" xmlns="http://www.w3.org/2000/svg" xmlns:xlink="http://www.w3.org/1999/xlink">
<g id="graph0" class="graph" transform="scale(1 1) rotate(0) translate(4 280)">
<title>dependencies</title>
<polygon fill="white" stroke="transparent" points="-4,4 -4,-280 1631,-280 1631,4 -4,4"/>
<text text-anchor="start" x="792.51" y="-42.4" font-family="Times-12" font-weight="bold" font-size="14.00">Legend</text>
<polygon fill="#ffffb3" stroke="transparent" points="579.5,-10 579.5,-30 599.5,-30 599.5,-10 579.5,-10"/>
<text text-anchor="start" x="603.13" y="-15.4" font-family="Times-12" font-size="14.00"> &#160;Declarations</text>
<polygon fill="#8dd3c7" stroke="transparent" points="692.5,-10 692.5,-30 712.5,-30 712.5,-10 692.5,-10"/>
<text text-anchor="start" x="716.23" y="-15.4" font-family="Times-12" font-size="14.00"> &#160;Module</text>
<polygon fill="#80b1d3" stroke="transparent" points="778.5,-10 778.5,-30 798.5,-30 798.5,-10 778.5,-10"/>
<text text-anchor="start" x="802.28" y="-15.4" font-family="Times-12" font-size="14.00"> &#160;Bootstrap</text>
<polygon fill="#fdb462" stroke="transparent" points="875.5,-10 875.5,-30 895.5,-30 895.5,-10 875.5,-10"/>
<text text-anchor="start" x="899.17" y="-15.4" font-family="Times-12" font-size="14.00"> &#160;Providers</text>
<polygon fill="#fb8072" stroke="transparent" points="971.5,-10 971.5,-30 991.5,-30 991.5,-10 971.5,-10"/>
<text text-anchor="start" x="995.23" y="-15.4" font-family="Times-12" font-size="14.00"> &#160;Exports</text>
<g id="clust1" class="cluster">
<title>cluster_AppModule</title>
<polygon fill="none" stroke="black" stroke-dasharray="1,5" points="8,-70 8,-268 1619,-268 1619,-70 8,-70"/>
</g>
<g id="clust2" class="cluster">
<title>cluster_AppModule_declarations</title>
<polygon fill="none" stroke="black" points="168,-78 168,-130 1611,-130 1611,-78 168,-78"/>
</g>
<g id="clust12" class="cluster">
<title>cluster_AppModule_imports</title>
<polygon fill="none" stroke="black" points="16,-78 16,-130 160,-130 160,-78 16,-78"/>
</g>
<g id="clust14" class="cluster">
<title>cluster_AppModule_bootstrap</title>
<polygon fill="none" stroke="black" points="776,-208 776,-260 900,-260 900,-208 776,-208"/>
</g>
<!-- AddTrainingComponent -->
<g id="node1" class="node">
<title>AddTrainingComponent</title>
<polygon fill="#ffffb3" stroke="black" points="1602.65,-122 1449.35,-122 1449.35,-86 1602.65,-86 1602.65,-122"/>
<text text-anchor="middle" x="1526" y="-99.8" font-family="Times,serif" font-size="14.00">AddTrainingComponent</text>
</g>
<!-- AppModule -->
<g id="node10" class="node">
<title>AppModule</title>
<polygon fill="#8dd3c7" stroke="black" points="879.66,-187 876.66,-191 855.66,-191 852.66,-187 796.34,-187 796.34,-151 879.66,-151 879.66,-187"/>
<text text-anchor="middle" x="838" y="-164.8" font-family="Times,serif" font-size="14.00">AppModule</text>
</g>
<!-- AddTrainingComponent&#45;&gt;AppModule -->
<g id="edge1" class="edge">
<title>AddTrainingComponent&#45;&gt;AppModule</title>
<path fill="none" stroke="black" d="M1526,-122.01C1526,-144.49 1526,-180 1526,-180 1526,-180 889.74,-180 889.74,-180"/>
<polygon fill="black" stroke="black" points="889.74,-176.5 879.74,-180 889.74,-183.5 889.74,-176.5"/>
</g>
<!-- AppComponent -->
<g id="node2" class="node">
<title>AppComponent</title>
<polygon fill="#ffffb3" stroke="black" points="1430.94,-122 1325.06,-122 1325.06,-86 1430.94,-86 1430.94,-122"/>
<text text-anchor="middle" x="1378" y="-99.8" font-family="Times,serif" font-size="14.00">AppComponent</text>
</g>
<!-- AppComponent&#45;&gt;AppModule -->
<g id="edge2" class="edge">
<title>AppComponent&#45;&gt;AppModule</title>
<path fill="none" stroke="black" d="M1378,-122.13C1378,-142.57 1378,-173 1378,-173 1378,-173 889.92,-173 889.92,-173"/>
<polygon fill="black" stroke="black" points="889.92,-169.5 879.92,-173 889.92,-176.5 889.92,-169.5"/>
</g>
<!-- DashboardCardComponent -->
<g id="node3" class="node">
<title>DashboardCardComponent</title>
<polygon fill="#ffffb3" stroke="black" points="1307.69,-122 1138.31,-122 1138.31,-86 1307.69,-86 1307.69,-122"/>
<text text-anchor="middle" x="1223" y="-99.8" font-family="Times,serif" font-size="14.00">DashboardCardComponent</text>
</g>
<!-- DashboardCardComponent&#45;&gt;AppModule -->
<g id="edge3" class="edge">
<title>DashboardCardComponent&#45;&gt;AppModule</title>
<path fill="none" stroke="black" d="M1223,-122.27C1223,-140.56 1223,-166 1223,-166 1223,-166 889.93,-166 889.93,-166"/>
<polygon fill="black" stroke="black" points="889.93,-162.5 879.93,-166 889.93,-169.5 889.93,-162.5"/>
</g>
<!-- HeaderComponent -->
<g id="node4" class="node">
<title>HeaderComponent</title>
<polygon fill="#ffffb3" stroke="black" points="1120.74,-122 999.26,-122 999.26,-86 1120.74,-86 1120.74,-122"/>
<text text-anchor="middle" x="1060" y="-99.8" font-family="Times,serif" font-size="14.00">HeaderComponent</text>
</g>
<!-- HeaderComponent&#45;&gt;AppModule -->
<g id="edge4" class="edge">
<title>HeaderComponent&#45;&gt;AppModule</title>
<path fill="none" stroke="black" d="M1060,-122.01C1060,-138.05 1060,-159 1060,-159 1060,-159 889.76,-159 889.76,-159"/>
<polygon fill="black" stroke="black" points="889.76,-155.5 879.76,-159 889.76,-162.5 889.76,-155.5"/>
</g>
<!-- SidenavComponent -->
<g id="node5" class="node">
<title>SidenavComponent</title>
<polygon fill="#ffffb3" stroke="black" points="981.44,-122 854.56,-122 854.56,-86 981.44,-86 981.44,-122"/>
<text text-anchor="middle" x="918" y="-99.8" font-family="Times,serif" font-size="14.00">SidenavComponent</text>
</g>
<!-- SidenavComponent&#45;&gt;AppModule -->
<g id="edge5" class="edge">
<title>SidenavComponent&#45;&gt;AppModule</title>
<path fill="none" stroke="black" d="M867.31,-122.11C867.31,-122.11 867.31,-140.99 867.31,-140.99"/>
<polygon fill="black" stroke="black" points="863.81,-140.99 867.31,-150.99 870.81,-140.99 863.81,-140.99"/>
</g>
<!-- TrainingCardComponent -->
<g id="node6" class="node">
<title>TrainingCardComponent</title>
<polygon fill="#ffffb3" stroke="black" points="836.25,-122 679.75,-122 679.75,-86 836.25,-86 836.25,-122"/>
<text text-anchor="middle" x="758" y="-99.8" font-family="Times,serif" font-size="14.00">TrainingCardComponent</text>
</g>
<!-- TrainingCardComponent&#45;&gt;AppModule -->
<g id="edge6" class="edge">
<title>TrainingCardComponent&#45;&gt;AppModule</title>
<path fill="none" stroke="black" d="M816.27,-122.11C816.27,-122.11 816.27,-140.99 816.27,-140.99"/>
<polygon fill="black" stroke="black" points="812.77,-140.99 816.27,-150.99 819.77,-140.99 812.77,-140.99"/>
</g>
<!-- TrainingComponent -->
<g id="node7" class="node">
<title>TrainingComponent</title>
<polygon fill="#ffffb3" stroke="black" points="661.54,-122 532.46,-122 532.46,-86 661.54,-86 661.54,-122"/>
<text text-anchor="middle" x="597" y="-99.8" font-family="Times,serif" font-size="14.00">TrainingComponent</text>
</g>
<!-- TrainingComponent&#45;&gt;AppModule -->
<g id="edge7" class="edge">
<title>TrainingComponent&#45;&gt;AppModule</title>
<path fill="none" stroke="black" d="M597,-122.01C597,-138.05 597,-159 597,-159 597,-159 786.3,-159 786.3,-159"/>
<polygon fill="black" stroke="black" points="786.3,-162.5 796.3,-159 786.3,-155.5 786.3,-162.5"/>
</g>
<!-- TrainingDetailsComponent -->
<g id="node8" class="node">
<title>TrainingDetailsComponent</title>
<polygon fill="#ffffb3" stroke="black" points="514.69,-122 345.31,-122 345.31,-86 514.69,-86 514.69,-122"/>
<text text-anchor="middle" x="430" y="-99.8" font-family="Times,serif" font-size="14.00">TrainingDetailsComponent</text>
</g>
<!-- TrainingDetailsComponent&#45;&gt;AppModule -->
<g id="edge8" class="edge">
<title>TrainingDetailsComponent&#45;&gt;AppModule</title>
<path fill="none" stroke="black" d="M430,-122.27C430,-140.56 430,-166 430,-166 430,-166 786.25,-166 786.25,-166"/>
<polygon fill="black" stroke="black" points="786.25,-169.5 796.25,-166 786.25,-162.5 786.25,-169.5"/>
</g>
<!-- TrainingListComponent -->
<g id="node9" class="node">
<title>TrainingListComponent</title>
<polygon fill="#ffffb3" stroke="black" points="327.82,-122 176.18,-122 176.18,-86 327.82,-86 327.82,-122"/>
<text text-anchor="middle" x="252" y="-99.8" font-family="Times,serif" font-size="14.00">TrainingListComponent</text>
</g>
<!-- TrainingListComponent&#45;&gt;AppModule -->
<g id="edge9" class="edge">
<title>TrainingListComponent&#45;&gt;AppModule</title>
<path fill="none" stroke="black" d="M252,-122.13C252,-142.57 252,-173 252,-173 252,-173 786.33,-173 786.33,-173"/>
<polygon fill="black" stroke="black" points="786.33,-176.5 796.33,-173 786.33,-169.5 786.33,-176.5"/>
</g>
<!-- AppComponent  -->
<g id="node12" class="node">
<title>AppComponent </title>
<polygon fill="#80b1d3" stroke="black" points="892.44,-252 783.56,-252 783.56,-216 892.44,-216 892.44,-252"/>
<text text-anchor="middle" x="838" y="-229.8" font-family="Times,serif" font-size="14.00">AppComponent </text>
</g>
<!-- AppModule&#45;&gt;AppComponent  -->
<g id="edge11" class="edge">
<title>AppModule&#45;&gt;AppComponent </title>
<path fill="none" stroke="black" stroke-dasharray="1,5" d="M838,-187.11C838,-187.11 838,-205.99 838,-205.99"/>
<polygon fill="black" stroke="black" points="834.5,-205.99 838,-215.99 841.5,-205.99 834.5,-205.99"/>
</g>
<!-- AppRoutingModule -->
<g id="node11" class="node">
<title>AppRoutingModule</title>
<polygon fill="#8dd3c7" stroke="black" points="152.27,-122 149.27,-126 128.27,-126 125.27,-122 23.73,-122 23.73,-86 152.27,-86 152.27,-122"/>
<text text-anchor="middle" x="88" y="-99.8" font-family="Times,serif" font-size="14.00">AppRoutingModule</text>
</g>
<!-- AppRoutingModule&#45;&gt;AppModule -->
<g id="edge10" class="edge">
<title>AppRoutingModule&#45;&gt;AppModule</title>
<path fill="none" stroke="black" d="M88,-122.01C88,-144.49 88,-180 88,-180 88,-180 786.34,-180 786.34,-180"/>
<polygon fill="black" stroke="black" points="786.34,-183.5 796.34,-180 786.34,-176.5 786.34,-183.5"/>
</g>
</g>
</svg>
